<?xml version="1.0" encoding="utf-8"?>
<svg viewBox="524.1683 156.0206 69.9994 70.0008" width="69.9994px" height="70.0008px"
    xmlns="http://www.w3.org/2000/svg">
    <g transform="matrix(0.02022700011730194, 0, 0, -0.018140001222491264, 524.1823120117188, 226.07122802734375)"
        fill="#000000" stroke="none" style="" id="object-0">
        <path
            d="M1620 3828 c-30 -17 -94 -53 -142 -79 -49 -27 -127 -71 -175 -98 -49 -26 -131 -72 -183 -101 -234 -129 -269 -149 -340 -190 -41 -24 -127 -71 -190 -105 -63 -34 -153 -83 -200 -110 -47 -26 -139 -77 -205 -112 -136 -72 -153 -86 -171 -140 -18 -50 -20 -1865 -3 -1927 15 -56 48 -84 174 -151 61 -32 139 -74 175 -93 36 -19 133 -71 215 -115 311 -165 627 -337 693 -376 29 -17 55 -31 57 -31 2 0 34 -17 72 -38 37 -21 122 -67 188 -101 148 -78 161 -78 302 2 54 31 152 84 218 120 66 35 262 142 435 237 173 95 385 210 470 255 384 205 403 217 428 265 l22 44 0 942 c0 644 -3 952 -11 971 -16 44 -48 71 -139 120 -85 46 -231 126 -325 178 -27 16 -113 62 -190 103 -77 41 -239 129 -360 197 -121 67 -245 136 -275 153 -30 16 -129 71 -220 121 -195 108 -225 113 -320 59z m530 -538 c113 -62 332 -182 488 -266 156 -84 292 -160 303 -167 18 -13 15 -16 -38 -44 -73 -38 -226 -120 -668 -358 -192 -104 -384 -207 -427 -229 l-76 -41 -74 39 c-134 71 -211 113 -403 216 -104 56 -291 157 -415 223 -371 198 -345 182 -318 199 13 9 62 35 108 58 94 47 486 260 592 321 37 22 165 93 285 159 l217 120 111 -59 c60 -32 202 -109 315 -171z m-1742 -783 l92 -47 0 -543 0 -542 -92 -53 -93 -52 -6 27 c-9 40 -11 1265 -1 1261 4 -2 49 -25 100 -51z m2742 -597 c0 -352 -3 -640 -6 -640 -4 0 -115 57 -247 127 -158 83 -251 127 -272 127 -21 0 -117 -47 -300 -148 -383 -211 -412 -226 -419 -226 -3 0 -6 60 -6 134 l0 134 33 20 c17 11 154 83 302 161 152 80 282 155 298 172 39 42 38 100 -2 140 -52 51 -65 47 -416 -146 -82 -45 -165 -90 -182 -99 l-33 -17 0 130 0 129 93 50 c50 28 146 78 212 112 66 34 167 88 225 120 148 80 317 170 321 170 2 0 3 -132 1 -292 -2 -161 -1 -313 3 -337 17 -116 155 -141 185 -33 6 22 10 181 10 397 l0 360 88 47 c48 26 93 47 100 47 9 1 12 -133 12 -639z m-2415 436 c11 -7 58 -34 105 -58 151 -80 433 -230 520 -277 47 -26 111 -60 142 -76 l58 -30 0 -378 0 -378 -117 63 c-65 34 -215 114 -333 178 -289 155 -264 147 -340 116 -35 -14 -65 -26 -67 -26 -2 0 -3 198 -3 440 0 242 3 440 8 440 4 0 16 -6 27 -14z m148 -1077 c23 -12 185 -98 360 -191 l317 -171 0 -233 c0 -218 -1 -233 -17 -227 -10 4 -155 83 -323 176 -168 94 -377 208 -464 254 -172 91 -272 145 -324 176 l-33 20 68 37 c188 103 340 180 356 180 10 0 37 -9 60 -21z m1865 -39 c64 -33 159 -82 210 -109 l92 -50 -42 -24 c-24 -13 -128 -71 -233 -129 -104 -58 -287 -159 -405 -225 -261 -145 -460 -253 -466 -253 -2 0 -3 107 -2 237 l3 237 215 114 c448 236 495 261 503 261 4 1 60 -26 125 -59z"
            style="fill: rgb(255,255,255);" />
        <path
            d="M1695 3220 c-33 -8 -165 -72 -265 -130 -77 -44 -131 -74 -265 -147 -120 -66 -155 -96 -155 -136 0 -57 44 -106 95 -107 20 0 130 54 325 159 l294 159 66 -33 c36 -18 150 -81 255 -139 217 -122 246 -129 296 -75 40 43 40 97 1 134 -16 15 -116 73 -223 129 -107 56 -228 121 -269 143 -85 46 -112 54 -155 43z"
            style="fill: rgb(255,255,255);" />
        <path
            d="M921 1934 c-36 -26 -53 -75 -39 -116 6 -18 16 -38 22 -45 9 -10 206 -122 326 -185 51 -27 77 -23 117 17 32 32 35 40 30 76 -3 23 -15 51 -27 64 -12 13 -88 58 -168 101 -216 116 -219 117 -261 88z"
            style="fill: rgb(255,255,255);" />
    </g>
</svg>