<?xml version="1.0" encoding="utf-8"?>
<svg viewBox="265.7747 151.5575 622.4705 70.005" xmlns="http://www.w3.org/2000/svg">
    <path
        d="M 265.775 219.798 L 265.775 155.521 L 270.58 153.318 L 292.952 153.318 C 302.013 153.318 306.541 157.72 306.541 166.529 L 306.541 173.747 C 306.541 176.979 305.666 179.547 303.914 181.452 C 308.383 183.917 310.618 188.25 310.618 194.442 L 310.618 204.392 C 310.618 214.66 305.336 219.798 294.763 219.798 L 265.775 219.798 Z M 274.835 211.876 L 294.763 211.876 C 299.295 211.876 301.557 209.382 301.557 204.392 L 301.557 194.442 C 301.557 189.451 299.295 186.961 294.763 186.961 L 274.835 186.961 L 274.835 211.876 Z M 274.835 179.032 L 292.952 179.032 C 295.971 179.032 297.484 177.27 297.484 173.747 L 297.484 166.529 C 297.484 163.005 295.971 161.244 292.952 161.244 L 274.835 161.244 L 274.835 179.032 Z M 346.649 211.876 L 360.693 211.876 C 365.222 211.876 367.484 209.382 367.484 204.392 L 367.484 168.731 C 367.484 163.741 365.222 161.244 360.693 161.244 L 346.649 161.244 C 342.117 161.244 339.855 163.741 339.855 168.731 L 339.855 204.392 C 339.855 209.382 342.117 211.876 346.649 211.876 Z M 346.649 219.798 C 336.079 219.798 330.794 214.66 330.794 204.392 L 330.794 168.731 C 330.794 158.452 336.079 153.318 346.649 153.318 L 360.693 153.318 C 371.26 153.318 376.545 158.452 376.545 168.731 L 376.545 204.392 C 376.545 214.66 371.26 219.798 360.693 219.798 L 346.649 219.798 Z M 398.707 221.56 L 390.827 217.949 L 409.939 186.558 L 390.827 155.216 L 398.753 151.56 L 399.211 151.56 L 415.241 178.762 L 431.278 151.56 L 431.73 151.56 L 439.656 155.216 L 420.54 186.558 L 439.656 217.949 L 431.776 221.56 L 431.32 221.56 L 415.241 194.354 L 399.159 221.56 L 398.707 221.56 Z M 495.405 221.56 L 495.405 196.774 L 495.405 155.521 L 504.01 151.56 L 504.465 151.56 L 504.465 182.285 C 505.159 182.054 505.901 181.879 506.682 181.76 L 529.055 151.56 L 529.514 151.56 L 537.481 155.216 L 517.28 181.368 L 523.942 181.368 C 534.511 181.368 539.796 186.502 539.796 196.774 L 539.796 217.599 L 531.188 221.56 L 530.736 221.56 L 530.736 196.774 C 530.736 191.783 528.466 189.29 523.942 189.29 L 511.26 189.29 C 506.731 189.29 504.465 191.783 504.465 196.774 L 504.465 217.599 L 495.853 221.56 L 495.405 221.56 Z M 575.831 219.798 C 565.268 219.798 559.983 214.66 559.983 204.392 L 559.983 155.521 L 568.589 151.56 L 569.037 151.56 L 569.037 204.392 C 569.037 209.382 571.306 211.876 575.831 211.876 L 589.879 211.876 C 594.404 211.876 596.673 209.382 596.673 204.392 L 596.673 155.521 L 605.278 151.56 L 605.727 151.56 L 605.727 204.392 C 605.727 214.66 600.445 219.798 589.879 219.798 L 575.831 219.798 Z M 626.817 219.798 L 626.817 155.521 L 635.422 151.56 L 635.871 151.56 L 635.871 211.788 L 666.901 211.788 L 666.901 212.226 L 663.234 219.798 L 626.817 219.798 Z M 678.388 221.56 L 678.388 161.335 L 659 161.335 L 659 160.893 L 662.67 153.318 L 706.834 153.318 L 706.834 153.759 L 703.167 161.335 L 687.445 161.335 L 687.445 217.599 L 678.837 221.56 L 678.388 221.56 Z M 730.397 219.798 C 719.831 219.798 714.542 214.66 714.542 204.392 L 714.542 155.521 L 723.151 151.56 L 723.606 151.56 L 723.606 204.392 C 723.606 209.382 725.869 211.876 730.397 211.876 L 744.438 211.876 C 748.97 211.876 751.232 209.382 751.232 204.392 L 751.232 155.521 L 759.837 151.56 L 760.293 151.56 L 760.293 204.392 C 760.293 214.66 755.011 219.798 744.438 219.798 L 730.397 219.798 Z M 790.44 161.244 L 790.44 189.423 L 810.365 189.423 C 814.9 189.423 817.159 186.922 817.159 181.939 L 817.159 168.731 C 817.159 163.741 814.9 161.244 810.365 161.244 L 790.44 161.244 Z M 781.38 221.56 L 781.38 155.521 L 786.181 153.318 L 810.365 153.318 C 820.938 153.318 826.22 158.452 826.22 168.731 L 826.22 181.939 C 826.22 191.503 821.649 196.613 812.498 197.261 L 827.312 217.907 L 819.338 221.56 L 818.886 221.56 L 801.448 197.342 L 790.44 197.342 L 790.44 217.599 L 781.832 221.56 L 781.38 221.56 Z M 860.843 221.56 L 860.843 198.578 L 858.349 198.578 C 847.78 198.578 842.495 193.447 842.495 183.171 L 842.495 155.521 L 851.107 151.56 L 851.555 151.56 L 851.555 183.171 C 851.555 188.162 853.824 190.652 858.349 190.652 L 872.394 190.652 C 876.922 190.652 879.184 188.162 879.184 183.171 L 879.184 155.521 L 887.793 151.56 L 888.245 151.56 L 888.245 183.171 C 888.245 193.447 882.963 198.578 872.394 198.578 L 869.9 198.578 L 869.9 217.599 L 861.298 221.56 L 860.843 221.56 Z"
        style="fill: rgb(255, 255, 255); transform-origin: 574.942px 187.367px;"
        transform="matrix(1, 0.000008000002, -0.000008000002, 1, -4.6e-11, 3.98e-10)" />
</svg>